<svg id="Capa_1" enable-background="new 0 0 512 512" height="512" viewBox="0 0 512 512" width="512" xmlns="http://www.w3.org/2000/svg"><path d="m232.882 386.63c-3.117-2.728-7.855-2.412-10.583.706l-24.333 27.81-120.67-56.786 47.311-40.552c1.813-1.553 2.777-3.876 2.598-6.256s-1.48-4.533-3.504-5.798l-55.618-34.761 15.113-13.386c2.717-2.406 3.321-6.413 1.435-9.513l-60.934-100.145 158.185 43.141c2.383.651 4.932.085 6.817-1.509 1.885-1.595 2.865-4.016 2.619-6.473l-7.318-73.171 41.168-6.861c2.669-.444 4.891-2.292 5.815-4.835l25.017-68.795 25.016 68.794c.924 2.543 3.147 4.391 5.815 4.835l41.169 6.862-3.964 39.641c-.412 4.122 2.595 7.797 6.717 8.209 4.119.408 7.797-2.595 8.209-6.716l4.663-46.63c.393-3.932-2.332-7.495-6.23-8.144l-43.777-7.297-30.57-84.063c-1.077-2.964-3.894-4.937-7.048-4.937s-5.971 1.973-7.048 4.937l-30.568 84.062-43.777 7.297c-3.898.649-6.623 4.212-6.23 8.144l6.931 69.31-165.835-45.228c-2.958-.809-6.118.271-7.965 2.726-1.847 2.453-2.011 5.785-.415 8.408l67.464 110.878-17.933 15.884c-1.771 1.568-2.698 3.88-2.501 6.237.196 2.357 1.493 4.483 3.499 5.737l55.472 34.67-48.362 41.453c-1.932 1.655-2.893 4.178-2.551 6.699.341 2.521 1.937 4.698 4.239 5.781l136.274 64.129c1.023.481 2.112.714 3.19.714 2.114 0 4.188-.894 5.647-2.562l28.056-32.064c2.728-3.116 2.413-7.855-.705-10.582z"/><path d="m510.492 131.248c-1.847-2.454-5.003-3.535-7.966-2.726l-176.354 48.097c-3.997 1.09-6.353 5.213-5.263 9.209s5.215 6.352 9.209 5.262l158.185-43.141-60.933 100.145c-1.886 3.1-1.282 7.106 1.435 9.513l15.113 13.386-55.618 34.761c-2.024 1.265-3.325 3.418-3.504 5.798s.786 4.703 2.598 6.256l47.311 40.552-120.67 56.786-41.506-47.436h103.713c4.142 0 7.5-3.358 7.5-7.5 0-4.143-3.358-7.5-7.5-7.5h-101.523l162.814-155.414c2.996-2.86 3.106-7.607.247-10.604-2.86-2.997-7.607-3.107-10.604-.247l-163.676 156.237v-75.56l45.9-45.9c2.929-2.929 2.929-7.678 0-10.606-2.929-2.929-7.678-2.929-10.606 0l-35.294 35.294v-66.964l21.852-21.852c2.929-2.929 2.929-7.678 0-10.606-2.929-2.93-7.678-2.93-10.606 0l-11.246 11.244v-38.006c0-4.142-3.358-7.5-7.5-7.5s-7.5 3.358-7.5 7.5v38.006l-11.245-11.245c-2.929-2.93-7.678-2.93-10.606 0-2.929 2.929-2.929 7.677 0 10.606l21.852 21.852v66.964l-35.293-35.293c-2.929-2.929-7.678-2.929-10.606 0-2.929 2.929-2.929 7.678 0 10.606l45.9 45.9v75.56l-163.678-156.236c-2.996-2.86-7.743-2.75-10.604.247-2.86 2.996-2.75 7.744.247 10.604l162.814 155.413h-101.523c-4.142 0-7.5 3.357-7.5 7.5 0 4.142 3.358 7.5 7.5 7.5h112.742v136.79c0 4.142 3.358 7.5 7.5 7.5s7.5-3.358 7.5-7.5v-124.329l42.968 49.106c1.459 1.668 3.533 2.562 5.647 2.562 1.079 0 2.168-.232 3.191-.714l136.274-64.129c2.302-1.083 3.898-3.26 4.239-5.781s-.62-5.044-2.551-6.699l-48.362-41.453 55.472-34.67c2.006-1.254 3.303-3.38 3.499-5.737s-.731-4.669-2.501-6.237l-17.933-15.884 67.464-110.878c1.596-2.624 1.432-5.956-.415-8.409z"/></svg>