<svg id="Capa_1" enable-background="new 0 0 480.001 480.001" height="512" viewBox="0 0 480.001 480.001" width="512" xmlns="http://www.w3.org/2000/svg"><g><g id="outline_27_"><path d="m.47 195.276c-4.574 47.767 24.641 92.301 70.278 107.129 3.533 1.147 7.106 2.183 10.718 3.108-2.362 2.856-4.643 5.797-6.842 8.823-28.206 38.821-25.664 92.024 6.115 127.979 1.812 2.048 4.545 3.029 7.246 2.6l15.039-2.382 2.383 15.04c.428 2.701 2.206 4.997 4.715 6.086 44.014 19.114 95.398 5.095 123.606-33.724 2.181-3.003 4.272-6.079 6.272-9.23 1.987 3.129 4.08 6.207 6.277 9.233 28.224 38.795 79.588 52.813 123.606 33.732 2.509-1.089 4.287-3.385 4.715-6.086l2.383-15.04 15.039 2.382c2.701.43 5.435-.551 7.246-2.6 31.778-35.956 34.32-89.158 6.115-127.98-2.181-3-4.462-5.938-6.845-8.813 3.59-.923 7.164-1.962 10.721-3.117 45.639-14.831 74.853-59.371 70.273-107.14-.261-2.723-1.895-5.123-4.332-6.365l-13.567-6.913 6.913-13.567c1.243-2.438 1.154-5.343-.237-7.7-24.376-41.334-74.19-60.193-119.828-45.364-3.529 1.147-7.029 2.409-10.5 3.786.232-3.699.349-7.418.35-11.159 0-47.986-33.329-89.534-80.173-99.944-2.67-.592-5.457.219-7.392 2.152l-10.764 10.772-10.767-10.769c-1.935-1.933-4.722-2.744-7.392-2.152-46.844 10.41-80.173 51.958-80.173 99.944 0 3.711.12 7.436.357 11.154-3.446-1.364-6.946-2.624-10.5-3.781-45.639-14.831-95.456 4.028-119.832 45.365-1.391 2.357-1.48 5.262-.237 7.7l6.913 13.567-13.569 6.909c-2.436 1.242-4.07 3.643-4.33 6.365zm220.314 225.254c-22.85 31.452-63.895 43.764-100.284 30.082l-2.926-18.475c-.691-4.364-4.789-7.341-9.153-6.65l-18.475 2.926c-24.257-30.379-25.231-73.22-2.38-104.67 28.333-39.192 73.025-63.285 121.339-65.415l16.616-.772c.188-.009.376-.014.564-.016l.261.085c-.642 1.148-1.212 2.334-1.706 3.553l-38.936 53.591c-12.689-3.756-26.02 3.487-29.776 16.176s3.487 26.02 16.176 29.776 26.02-3.487 29.776-16.176c2.052-6.932.864-14.419-3.232-20.376l15.913-21.9c-5.086 34.998.628 70.714 16.379 102.378-3.07 5.49-6.461 10.793-10.156 15.883zm11.216-270.88c0-4.418 3.582-8 8-8s8 3.582 8 8-3.582 8-8 8c-4.416-.005-7.995-3.584-8-8zm-46.658 192.839c-2.597 3.574-7.6 4.366-11.175 1.769s-4.366-7.6-1.769-11.175 7.6-4.366 11.175-1.769c1.716 1.247 2.867 3.125 3.199 5.221.33 2.096-.184 4.237-1.43 5.954zm207.09-18.745c22.851 31.45 21.877 74.29-2.38 104.669l-18.475-2.926c-4.364-.691-8.462 2.286-9.153 6.65l-2.924 18.475c-36.388 13.681-77.432 1.369-100.282-30.082-28.519-39.057-37.623-89.007-24.718-135.614l4.4-16.043c.015-.054.031-.107.046-.161l.366-.5c1.23 1.32 2.571 2.531 4.009 3.621l38.03 52.342c-7.502 10.907-4.741 25.831 6.166 33.333s25.831 4.741 33.333-6.166 4.741-25.831-6.166-33.333c-5.96-4.099-13.453-5.288-20.389-3.234l-15.441-21.253c31.517 15.346 66.939 20.802 101.613 15.653 4.271 4.617 8.267 9.482 11.965 14.569zm-84.83 9.34c2.597 3.575 1.803 8.578-1.771 11.174-3.575 2.597-8.578 1.803-11.174-1.771-2.597-3.575-1.804-8.578 1.771-11.174 1.716-1.247 3.858-1.761 5.953-1.429 2.095.334 3.972 1.484 5.219 3.2zm45.822-202.5c36.972-12.015 77.415 2.15 98.811 34.607l-8.492 16.667c-2.005 3.937-.439 8.754 3.498 10.759.001 0 .001.001.002.001l16.667 8.492c1.767 38.836-22.626 74.067-59.6 86.079-45.959 15.051-96.276 8.274-136.615-18.4l-13.029-8.572-.983-1.353c1.628-.786 3.185-1.711 4.653-2.765l61.527-19.992c6.185 8.076 16.792 11.372 26.465 8.225 12.606-4.097 19.503-17.638 15.406-30.243-4.097-12.606-17.638-19.503-30.243-15.406-9.672 3.144-16.312 12.042-16.573 22.208l-25.146 8.171c24.231-25.201 40.298-57.124 46.1-91.6 5.711-2.634 11.572-4.93 17.553-6.874zm-16.986 83.321c4.202-1.365 8.715.935 10.08 5.137s-.935 8.715-5.137 10.08-8.715-.935-10.08-5.136c-1.37-4.193.918-8.703 5.111-10.073.009-.002.017-.005.026-.008zm-178.77-105.9c0-38.875 25.968-72.961 63.448-83.281l13.227 13.227c3.124 3.124 8.189 3.124 11.314 0l13.227-13.227c37.48 10.32 63.448 44.406 63.448 83.281.114 48.361-21.88 94.122-59.715 124.243l-11.886 9.51-1.9.618c-.189-1.347-.466-2.681-.829-3.992v-66.1c12.497-4.418 19.046-18.131 14.627-30.627-4.418-12.497-18.131-19.046-30.627-14.627-12.497 4.418-19.046 18.131-14.627 30.627 2.416 6.835 7.793 12.211 14.627 14.627v27.336c-16.466-31.124-41.998-56.512-73.215-72.8-.743-6.247-1.117-12.531-1.119-18.822zm-141.574 93.109 16.667-8.492c3.938-2.004 5.505-6.821 3.501-10.758 0-.001-.001-.001-.001-.002l-8.496-16.667c21.396-32.457 61.839-46.622 98.811-34.607 46.029 14.836 82.753 49.894 99.709 95.185l5.715 15.155v1.15c-.991-.186-1.991-.324-3-.414l-63.918-20.768c-.274-10.164-6.911-19.056-16.577-22.21-12.606-4.095-26.146 2.804-30.241 15.411-4.095 12.606 2.804 26.146 15.411 30.241 9.673 3.142 20.276-.153 26.463-8.226l26.38 8.572c-34.96 5.938-67.267 22.43-92.583 47.262-6.169-1.225-12.261-2.812-18.244-4.753-36.974-12.012-61.367-47.243-59.6-86.079zm132.606 22.869c-1.365 4.202-5.879 6.502-10.081 5.136-4.202-1.365-6.502-5.879-5.136-10.081 1.365-4.202 5.878-6.501 10.08-5.136 4.198 1.37 6.496 5.879 5.137 10.081z"/><path d="m179.815 264.406h32v16.001h-32z" transform="matrix(.921 -.391 .391 .921 -90.871 98.166)"/><path d="m236.182 285.468h16v32h-16z" transform="matrix(.996 -.087 .087 .996 -25.346 22.429)"/><path d="m278.772 248.45h16v32h-16z" transform="matrix(.225 -.974 .974 .225 -35.41 484.383)"/><path d="m200.509 201.422h16.001v32h-16.001z" transform="matrix(.755 -.656 .656 .755 -91.497 190.132)"/><path d="m248.721 204.504h32v16h-32z" transform="matrix(.515 -.857 .857 .515 -53.77 329.972)"/></g></g></svg>